HIERARCHY
ROOT Hips
{
	OFFSET 0.00000 0.00000 0.00000
	CHANNELS 6 Xposition Yposition Zposition Yrotation Zrotation Xrotation 
	JOINT Lumbar
	{
		OFFSET 0 0 0
		CHANNELS 3 Zrotation Xrotation Yrotation
		JOINT Neck
		{
			OFFSET 0.00 0.2701 0.00
			CHANNELS 3 Zrotation Xrotation Yrotation
			End Site
			{
				OFFSET 0.00 0.1379 0.00
			}
		}
		JOINT RightShoulder
		{
			OFFSET 0.0119 0.2289 0.1181
			CHANNELS 3 Zrotation Xrotation Yrotation
			JOINT RightElbow
			{
				OFFSET 0.00 -0.1475 0.00
				CHANNELS 2 Zrotation Yrotation
				JOINT RightWrist
				{
					OFFSET 0.00 -0.1605 0.00
					CHANNELS 2 Zrotation Xrotation
					End Site
					{
						OFFSET 0.0040 -0.1068 0.0006
					}
				}
			}
		}
		JOINT LeftShoulder
		{
			OFFSET 0.0119 0.2289 -0.1181
			CHANNELS 3 Zrotation Xrotation Yrotation
			JOINT LeftElbow
			{
				OFFSET 0.00 -0.1475 0.00
				CHANNELS 2 Zrotation Yrotation
				JOINT LeftWrist
				{
					OFFSET 0.00 -0.1605 0.00
					CHANNELS 2 Zrotation Xrotation
					End Site
					{
						OFFSET 0.0040 -0.1068 -0.0006
					}
				}
			}
		}
	}
	JOINT RightHip
	{
		OFFSET 0.0316 -0.0424 0.0458
		CHANNELS 3 Zrotation Xrotation Yrotation
		JOINT RightKnee
		{
			OFFSET 0.00 -0.2438 0.00
			CHANNELS 1 Zrotation
			JOINT RightAnkle
			{
				OFFSET 0.00 -0.2449 0.00
				CHANNELS 3 Zrotation Xrotation Yrotation
				End Site
				{
					OFFSET 0.1237 -0.0542 0.0051
				}
			}
		}
	}
	JOINT LeftHip
	{
		OFFSET 0.0316 -0.0424 -0.0458
		CHANNELS 3 Zrotation Xrotation Yrotation
		JOINT LeftKnee
		{
			OFFSET 0.00 -0.2438 0.00
			CHANNELS 1 Zrotation
			JOINT LeftAnkle
			{
				OFFSET 0.00 -0.2449 0.00
				CHANNELS 3 Zrotation Xrotation Yrotation
				End Site
				{
					OFFSET 0.1237 -0.0542 -0.0051
				}
			}
		}
	}
}
MOTION
Frames: 23
Frame Time: 0.02
0 0.57926 0 183.02767 0 -2.49168 1.60267 2.35419 -3.0549 -22.94937 5.28007 0.99765 -23.53131 -71.95803 -79.05205 21.09973 78.00536 -15.87282 -2.95344 -13.36002 65.81114 71.34362 23.04625 -73.68341 -26.69402 2.64242 -3.33657 0.4449 6.58541 -6.93763 -1.35839 -3.64485 -6.19082 -1.18148 4.36303 0.76589 -7.46644 4.3731 1.26231 -2.21054
-4e-05 0.57926 -1e-05 183.04091 0 -2.49347 1.61268 2.3504 -3.05658 -23.01281 5.29556 0.9967 -23.34255 -71.97276 -78.93932 21.10773 77.97923 -15.86574 -2.93352 -13.27189 65.78364 71.28657 23.04133 -73.60378 -26.66172 2.64519 -3.34492 0.44883 6.57822 -6.93434 -1.35517 -3.65491 -6.19351 -1.18225 4.36721 0.74565 -7.46825 4.37788 1.25963 -2.21082
-8e-05 0.57925 -3e-05 183.05419 0 -2.49524 1.62253 2.34658 -3.05821 -23.07573 5.31086 0.99576 -23.15494 -71.98714 -78.82727 21.11566 77.95315 -15.8586 -2.91387 -13.18441 65.75638 71.22969 23.03637 -73.52502 -26.62978 2.64798 -3.35325 0.45276 6.571 -6.93107 -1.35195 -3.66493 -6.19622 -1.18299 4.37139 0.72541 -7.47006 4.38267 1.25696 -2.2111
-0.00012 0.57924 -4e-05 183.06763 0 -2.497 1.6319 2.34267 -3.05969 -23.13685 5.32558 0.99487 -22.96999 -72.00021 -78.71657 21.12334 77.92657 -15.85113 -2.8953 -13.09922 65.72985 71.17294 23.03109 -73.44902 -26.59895 2.65087 -3.36151 0.45673 6.56368 -6.92797 -1.34866 -3.67485 -6.19906 -1.18358 4.37556 0.70477 -7.47202 4.38762 1.25431 -2.21119
-0.00017 0.57924 -6e-05 183.08006 0 -2.49887 1.64387 2.33932 -3.062 -23.20712 5.34342 0.99371 -22.77084 -72.0201 -78.59837 21.13232 77.90214 -15.8454 -2.87123 -13.00254 65.69949 71.11549 23.02742 -73.35849 -26.56221 2.65326 -3.37007 0.46052 6.55698 -6.92413 -1.34568 -3.68529 -6.20124 -1.18492 4.37975 0.68602 -7.4733 4.39182 1.25158 -2.21203
-0.00021 0.57923 -7e-05 183.09472 0 -2.50048 1.65032 2.33474 -3.06252 -23.25822 5.35463 0.99313 -22.602 -72.02563 -78.49641 21.13855 77.87351 -15.83599 -2.85869 -12.92981 65.67721 71.0596 23.0204 -73.29871 -26.53803 2.65669 -3.37806 0.46466 6.54893 -6.92175 -1.34207 -3.69462 -6.20482 -1.18471 4.38389 0.66342 -7.47595 4.39752 1.24899 -2.21145
-0.00024 0.57922 -0.0001 183.11531 0 -2.50155 1.64115 2.32682 -3.05831 -23.25369 5.34719 0.99406 -22.51431 -71.98967 -78.43581 21.13693 77.82913 -15.81597 -2.88002 -12.92741 65.67805 71.00646 23.0032 -73.32589 -26.54906 2.66327 -3.38401 0.46995 6.53729 -6.92426 -1.33641 -3.70098 -6.21226 -1.1798 4.38796 0.62795 -7.48324 4.40839 1.24703 -2.20534
-0.00026 0.57921 -0.00014 183.13818 0 -2.50233 1.62648 2.31762 -3.05225 -23.23028 5.3331 0.99559 -22.45748 -71.93954 -78.39208 21.13258 77.78113 -15.79233 -2.91271 -12.94846 65.68687 70.95511 22.98279 -73.38374 -26.57264 2.67085 -3.38946 0.47556 6.52429 -6.92811 -1.33015 -3.70621 -6.22113 -1.17339 4.39198 0.58891 -7.49179 4.4206 1.24519 -2.19803
-0.00029 0.5792 -0.00017 183.16021 0 -2.50315 1.61459 2.30895 -3.04689 -23.21726 5.32226 0.99691 -22.38817 -71.89703 -78.34293 21.12964 77.73757 -15.77059 -2.93889 -12.95595 65.69154 70.90391 22.96447 -73.4263 -26.59022 2.67783 -3.39548 0.48089 6.51174 -6.93074 -1.32438 -3.7119 -6.22936 -1.16794 4.39597 0.55294 -7.49918 4.4315 1.24314 -2.19239
-0.00031 0.57919 -0.0002 183.18151 0 -2.50436 1.60156 2.3005 -3.0421 -23.19665 5.31048 0.99797 -22.31272 -71.84945 -78.28465 21.12598 77.68263 -15.74765 -2.97059 -12.97547 65.69852 70.84871 22.9435 -73.47466 -26.60925 2.68547 -3.40016 0.48676 6.49974 -6.93584 -1.31774 -3.7178 -6.23753 -1.16137 4.40015 0.51104 -7.50897 4.44527 1.2417 -2.18223
-0.00034 0.57918 -0.00023 183.20474 0 -2.50471 1.58955 2.2913 -3.03569 -23.18734 5.29906 0.99972 -22.25693 -71.80918 -78.24895 21.12316 77.65 -15.7265 -2.9937 -12.97581 65.70246 70.8022 22.92725 -73.51809 -26.62799 2.69194 -3.4074 0.4916 6.48646 -6.93626 -1.31273 -3.72301 -6.24618 -1.15672 4.40393 0.48042 -7.51418 4.45351 1.23906 -2.18091
-0.00037 0.57918 -0.00025 183.23393 0 -2.50255 1.58204 2.28011 -3.02542 -23.21416 5.29043 1.00305 -22.25185 -71.79139 -78.27547 21.12363 77.68477 -15.70995 -2.98825 -12.91462 65.69714 70.77954 22.92528 -73.54159 -26.64511 2.69512 -3.42277 0.49334 6.4684 -6.92202 -1.31279 -3.72666 -6.25558 -1.15806 4.40661 0.48359 -7.50529 4.44517 1.23264 -2.20674
-0.00039 0.57918 -0.00028 183.26481 0 -2.49955 1.57569 2.26824 -3.01356 -23.25297 5.28237 1.00707 -22.2647 -71.78162 -78.32338 21.12501 77.74132 -15.69556 -2.9741 -12.83376 65.68829 70.76544 22.9281 -73.55895 -26.66111 2.69706 -3.44058 0.49406 6.44933 -6.90327 -1.31443 -3.72965 -6.26543 -1.1613 4.40887 0.49789 -7.49194 4.4314 1.22508 -2.24107
-0.00042 0.57918 -0.0003 183.29407 0 -2.49705 1.56858 2.25682 -3.00231 -23.28612 5.27393 1.01092 -22.26674 -71.76903 -78.3589 21.12574 77.78455 -15.68098 -2.96532 -12.76386 65.68035 70.74727 22.92842 -73.57818 -26.67611 2.6994 -3.45662 0.49535 6.43183 -6.88754 -1.31508 -3.73289 -6.2752 -1.16344 4.41132 0.50598 -7.48136 4.42078 1.21832 -2.26986
-0.00045 0.57918 -0.00032 183.3268 0 -2.49409 1.56225 2.2448 -2.99144 -23.31949 5.26576 1.01428 -22.28121 -71.7527 -78.40633 21.12725 77.84166 -15.66295 -2.95107 -12.68656 65.67559 70.73012 22.92994 -73.60189 -26.69784 2.7024 -3.47533 0.49619 6.40985 -6.86785 -1.31684 -3.7363 -6.28455 -1.16656 4.41379 0.5189 -7.46772 4.40738 1.21042 -2.30557
-0.00047 0.57918 -0.00034 183.35292 0 -2.49187 1.55464 2.23383 -2.97949 -23.3555 5.25725 1.01872 -22.27352 -71.74597 -78.43376 21.12753 77.87562 -15.65267 -2.94583 -12.61933 65.66331 70.71262 22.9302 -73.615 -26.70524 2.70379 -3.48919 0.49772 6.39667 -6.8552 -1.31667 -3.73923 -6.29482 -1.16809 4.41613 0.52433 -7.45933 4.3984 1.20459 -2.32906
-0.00049 0.57917 -0.00037 183.35818 0 -2.49207 1.5431 2.22636 -2.96439 -23.3959 5.24779 1.02672 -22.20124 -71.76619 -78.40098 21.12316 77.83617 -15.66314 -2.96902 -12.58786 65.63067 70.69416 22.92563 -73.59551 -26.67207 2.70041 -3.48806 0.50137 6.41087 -6.86403 -1.311 -3.74085 -6.30786 -1.16492 4.41817 0.50734 -7.46694 4.40348 1.20485 -2.31529
-0.00051 0.57917 -0.0004 183.35708 0 -2.49302 1.53026 2.21992 -2.94837 -23.43862 5.23797 1.03565 -22.1057 -71.7954 -78.34721 21.11782 77.77376 -15.68133 -3.00126 -12.5666 65.59058 70.67471 22.91989 -73.56656 -26.62472 2.69563 -3.48214 0.50576 6.4335 -6.87991 -1.3033 -3.74204 -6.32175 -1.16008 4.42011 0.48227 -7.47991 4.4131 1.20722 -2.28918
-0.00053 0.57916 -0.00042 183.36039 0 -2.49352 1.51809 2.21272 -2.93319 -23.48041 5.22833 1.04365 -22.02005 -71.81904 -78.30278 21.11351 77.72424 -15.6961 -3.02834 -12.53836 65.55429 70.65426 22.91451 -73.54468 -26.58455 2.69181 -3.47908 0.50983 6.45039 -6.89193 -1.29635 -3.74355 -6.33504 -1.15591 4.42213 0.46021 -7.49018 4.4203 1.20855 -2.26966
-0.00055 0.57915 -0.00044 183.35754 0 -2.49446 1.50561 2.20665 -2.91625 -23.52219 5.21873 1.05377 -21.93798 -71.84932 -78.25992 21.10642 77.66394 -15.71073 -3.05949 -12.51893 65.51644 70.64 22.90907 -73.50995 -26.54102 2.68632 -3.47326 0.51381 6.47513 -6.90655 -1.29011 -3.74456 -6.34926 -1.15212 4.42399 0.44122 -7.50144 4.42881 1.21017 -2.24632
-0.00057 0.57914 -0.00047 183.36577 0 -2.49469 1.49344 2.19856 -2.90267 -23.56424 5.20885 1.05976 -21.84261 -71.86765 -78.20854 21.1053 77.6218 -15.72725 -3.08447 -12.48431 65.47973 70.6128 22.9046 -73.501 -26.5014 2.68431 -3.47197 0.51816 6.48574 -6.91751 -1.28198 -3.74645 -6.36173 -1.1472 4.4262 0.41393 -7.51193 4.43577 1.21172 -2.22785
-0.00061 0.57913 -0.00052 183.40798 0 -2.49258 1.48269 2.18404 -2.89936 -23.60766 5.19913 1.05348 -21.71664 -71.85185 -78.13844 21.11817 77.62297 -15.74884 -3.08989 -12.40097 65.45105 70.54776 22.89357 -73.55548 -26.47407 2.68953 -3.48488 0.52321 6.45338 -6.91622 -1.26849 -3.75117 -6.36898 -1.13898 4.42919 0.36388 -7.5194 4.43697 1.21245 -2.22599
-0.00065 0.57912 -0.00058 183.46122 0 -2.4898 1.47223 2.16757 -2.89933 -23.65099 5.189 1.04312 -21.57779 -71.82333 -78.0604 21.1383 77.6454 -15.77177 -3.08897 -12.30274 65.42308 70.47024 22.88569 -73.63811 -26.45163 2.69876 -3.50246 0.52863 6.40674 -6.91101 -1.25329 -3.75668 -6.37437 -1.12977 4.43258 0.30583 -7.52593 4.43656 1.21313 -2.22919
